<svg width="1839" height="1839" viewBox="0 0 1839 1839" fill="none" xmlns="http://www.w3.org/2000/svg">
<path fill-rule="evenodd" clip-rule="evenodd" d="M963.126 162.991C951.883 163.845 949.753 164.604 943.992 169.808C940.227 173.211 938.409 176.609 935.852 185.027C934.716 188.769 933.13 193.95 932.328 196.541C929.121 206.901 922.781 227.775 921.04 233.697C918.016 243.992 915.28 247.895 907.878 252.477C904.848 254.353 896.87 256.217 883.388 258.2C878.959 258.852 871.954 260.099 867.82 260.969C846.124 265.544 839.494 267.052 835.306 268.364C832.775 269.157 830.08 269.806 829.313 269.806C828.042 269.806 820.816 271.758 808.235 275.501C805.578 276.291 799.78 277.986 795.351 279.266C790.923 280.546 785.477 282.239 783.252 283.027C771.563 287.164 764.67 284.116 743.875 265.62C742.904 264.756 739.233 261.706 735.717 258.842C729.072 253.428 725.831 250.659 718.588 244.205C711.367 237.77 707.088 236.162 695.544 235.541L685.197 234.985L668.611 243.369C643.253 256.185 629.957 263.035 624.647 266.019C621.99 267.511 619.091 269.068 618.206 269.479C609.176 273.661 578.359 291.927 575.259 294.935C570.525 299.528 568.438 304.823 568.455 312.196C568.465 316.225 569.03 321.877 569.71 324.756C570.391 327.634 571.663 335.876 572.536 343.072C573.409 350.268 574.905 361.336 575.86 367.669C578.309 383.897 577.249 388.201 568.829 396.237C565.387 399.521 561.834 402.787 560.934 403.494C560.033 404.202 556.487 406.984 553.053 409.676C549.62 412.369 546.037 415.322 545.093 416.24C544.149 417.157 538.85 421.911 533.317 426.804C524.076 434.978 514.034 444.777 485.435 473.527C475.458 483.557 474.544 484.206 468.792 485.358C463.755 486.366 461.166 486.277 453.762 484.838C443.043 482.754 424.92 479.516 415.293 477.964C411.455 477.345 405.865 476.226 402.87 475.478C394.977 473.503 385.959 475.595 380.32 480.707C377.718 483.067 364.865 500.246 362.702 504.257C361.926 505.696 360.96 507.109 360.554 507.397C360.148 507.685 358.431 510.275 356.739 513.153C355.047 516.032 353.356 518.622 352.982 518.91C352.607 519.198 350.916 521.788 349.224 524.667C347.532 527.545 345.873 530.135 345.538 530.423C345.202 530.711 344.314 532.124 343.565 533.563C342.816 535.002 341.617 537.122 340.902 538.273C340.188 539.424 337.117 544.37 334.079 549.263C331.04 554.156 326.994 560.986 325.087 564.439C310.937 590.076 311.843 587.903 311.779 596.362C311.717 604.324 313.534 609.118 318.587 614.329C319.517 615.289 321.969 618.504 324.036 621.476C326.103 624.447 329.606 629.183 331.82 632C334.035 634.815 335.846 637.375 335.846 637.684C335.846 638.446 347.633 654.18 349.192 655.498C349.872 656.074 351.617 658.429 353.069 660.732C356.651 666.415 356.813 679.262 353.393 686.375C351.143 691.054 342.468 715.793 338.163 729.811C331.97 749.973 329.02 761.22 322.377 789.993C320.258 799.174 318.66 802.529 314.632 806.254C311.557 809.097 304.56 813.02 302.562 813.02C301.923 813.02 298.16 814.488 294.198 816.282C285.53 820.209 274.609 825.074 268.745 827.623C266.383 828.65 262.687 830.258 260.531 831.197C258.375 832.137 256.062 832.906 255.394 832.906C253.742 832.906 248.849 835.994 246.091 838.776C240.725 844.187 239.279 848 238.157 859.694C235.223 890.263 234.914 918.951 235.184 1135.91L235.463 1360.94L238.475 1367.22C242.434 1375.48 250.486 1382.9 257.78 1385.01C266.26 1387.46 266.816 1387.4 299.343 1380.27C304.953 1379.04 312.683 1377.39 316.521 1376.6C320.359 1375.81 328.089 1374.2 333.698 1373.03C339.308 1371.86 347.712 1370.2 352.375 1369.35C357.038 1368.49 361.689 1367.53 362.71 1367.22C363.732 1366.9 368.613 1365.95 373.557 1365.11C378.502 1364.26 387.862 1362.62 394.358 1361.45C400.853 1360.29 409.066 1358.88 412.609 1358.31C416.152 1357.75 422.916 1356.61 427.639 1355.77C449.917 1351.82 455.052 1351 457.488 1351C460.168 1351 463.354 1353.96 473.268 1365.64C489.107 1384.32 519.967 1415.44 540.423 1433.38C546.503 1438.72 551.26 1443.91 553.132 1447.26C556.844 1453.91 556.957 1451.72 550.37 1501.06C546.839 1527.51 547.857 1530.65 563.729 1542.28C567.068 1544.72 570.062 1546.72 570.379 1546.72C570.698 1546.72 574.222 1548.99 578.209 1551.75C582.198 1554.51 588.29 1558.4 591.75 1560.38C595.208 1562.37 599.142 1564.7 600.493 1565.56C602.637 1566.94 614.504 1573.9 626.642 1580.9C648.881 1593.74 664.9 1601.64 670.91 1602.72C676.073 1603.65 682.427 1601.85 688.487 1597.73C691.233 1595.87 699.834 1590.11 707.604 1584.93C715.374 1579.75 724.647 1573.4 728.211 1570.82C738.168 1563.63 740.972 1562.42 747.754 1562.42C753.147 1562.42 767.574 1566.5 777.637 1570.87C780.737 1572.22 801.947 1578.92 811.992 1581.72C819.661 1583.86 825.925 1585.52 844.201 1590.23C847.153 1591 854.159 1592.61 859.768 1593.82C876.125 1597.35 880.75 1599.04 884.962 1603.03C888.202 1606.1 893.05 1614.04 893.05 1616.28C893.05 1616.91 898.682 1626.51 901.873 1631.33C902.888 1632.87 904.449 1635.53 905.341 1637.26C906.234 1638.99 907.577 1641.3 908.328 1642.39C914.334 1651.18 916.67 1655.31 916.67 1657.18C916.67 1662.13 925.094 1670.37 932.614 1672.77C939.839 1675.08 987.105 1677.78 1019.74 1677.75C1052.03 1677.71 1066.07 1676.51 1070.37 1673.41C1072 1672.24 1073.61 1671.28 1073.96 1671.28C1074.92 1671.28 1079.78 1665.67 1079.86 1664.47C1079.9 1663.9 1080.86 1661.54 1082.01 1659.24C1083.15 1656.94 1084.1 1654.52 1084.12 1653.88C1084.15 1652.79 1086.41 1647.28 1090.15 1639.2C1090.98 1637.38 1091.68 1635.5 1091.7 1635.01C1091.73 1634.52 1092.67 1632.24 1093.82 1629.93C1094.96 1627.63 1095.91 1625.22 1095.93 1624.57C1096 1622.13 1101.19 1612.03 1103.75 1609.36C1105.21 1607.84 1107.8 1605.9 1109.5 1605.05C1112.81 1603.42 1125.24 1600.63 1134.08 1599.53C1137.03 1599.16 1141.22 1598.43 1143.38 1597.9C1145.55 1597.36 1150.86 1596.26 1155.19 1595.44C1166.07 1593.38 1175.17 1591.32 1187.76 1588.06C1193.66 1586.53 1199.94 1584.91 1201.71 1584.46C1209.14 1582.56 1218.41 1579.8 1227.48 1576.8C1232.96 1574.98 1239.48 1573.57 1242.54 1573.54C1248.53 1573.48 1256.22 1576.47 1259.67 1580.19C1260.84 1581.46 1264.22 1584.21 1267.18 1586.31C1273.58 1590.85 1273.81 1591.01 1277.94 1594.44C1279.71 1595.91 1283.82 1598.9 1287.07 1601.09C1290.31 1603.28 1294.18 1606.22 1295.65 1607.63C1300.4 1612.13 1304.65 1614.47 1310.18 1615.61C1319.07 1617.45 1322.33 1616.36 1354.7 1600.68C1362.08 1597.11 1370.3 1592.99 1372.95 1591.52C1375.61 1590.06 1381.65 1586.86 1386.37 1584.42C1391.1 1581.97 1395.69 1579.41 1396.57 1578.72C1397.46 1578.04 1399.39 1576.92 1400.87 1576.22C1402.34 1575.53 1404.85 1574.14 1406.43 1573.14C1411.89 1569.68 1425.03 1561.9 1426.1 1561.49C1426.69 1561.26 1429.1 1559.61 1431.47 1557.83C1442.38 1549.57 1442.97 1547.25 1441.64 1517.88C1439.88 1479.09 1439.99 1473.45 1442.59 1468.68C1445.28 1463.75 1448.58 1459.85 1450.07 1459.85C1450.66 1459.85 1451.31 1459.46 1451.51 1458.99C1451.7 1458.51 1456.7 1454.17 1462.6 1449.35C1468.51 1444.53 1475.01 1439.15 1477.06 1437.39C1481.47 1433.63 1523.03 1393.23 1532.57 1383.44C1541.19 1374.59 1541.64 1374.26 1547.12 1372.84C1551.7 1371.64 1567.72 1372.72 1598.95 1376.33C1611.86 1377.82 1619.25 1377.62 1622.83 1375.68C1624.46 1374.8 1626.51 1373.8 1627.4 1373.46C1628.29 1373.13 1630.42 1371.02 1632.13 1368.78C1633.85 1366.54 1635.78 1364.53 1636.43 1364.32C1637.07 1364.1 1642.43 1364.77 1648.34 1365.8C1654.24 1366.83 1662.21 1368.19 1666.05 1368.82C1669.89 1369.46 1674.48 1370.41 1676.25 1370.94C1678.02 1371.48 1683.09 1372.59 1687.52 1373.41C1696.14 1375.01 1704.84 1376.82 1720.27 1380.24C1753.04 1387.48 1757.25 1387.78 1766.3 1383.51C1770.72 1381.42 1774.24 1378.57 1778.41 1373.68C1781.7 1369.83 1784.35 1362.3 1785.31 1354.11C1786.43 1344.61 1786.27 995.551 1785.12 922.918C1784.48 882.726 1784.47 882.608 1781.78 876.799C1778.67 870.104 1772.77 864.819 1766.43 863.047C1764.07 862.386 1761.66 861.519 1761.06 861.119C1760.47 860.719 1758.13 859.808 1755.86 859.095C1753.59 858.381 1750.45 857.145 1748.88 856.348C1747.32 855.551 1745.22 854.896 1744.22 854.892C1743.22 854.889 1742.14 854.467 1741.81 853.956C1741.49 853.444 1739.91 852.703 1738.3 852.309C1736.69 851.916 1733.33 850.686 1730.83 849.576C1728.33 848.467 1725.9 847.557 1725.43 847.554C1724.95 847.552 1721.66 846.402 1718.12 844.998C1706.91 840.558 1701.24 833.375 1699.88 821.906C1699.48 818.457 1698.7 813.951 1698.17 811.89C1697.64 809.831 1696.48 804.414 1695.61 799.854C1692.38 783.088 1685.45 755.427 1680.68 740.277C1679.77 737.399 1678.03 731.87 1676.8 727.989C1669.53 705.008 1669.49 704.741 1671.96 696.441C1673.13 692.549 1675.18 689.369 1679.21 685.229C1682.31 682.049 1689.19 674.783 1694.5 669.081C1699.82 663.379 1707.37 655.313 1711.29 651.156C1716.98 645.112 1718.68 642.516 1719.74 638.196C1721.4 631.43 1720.53 624.934 1716.94 617.391C1714.05 611.325 1698.77 581.334 1697.16 578.569C1696.66 577.706 1693.53 572.289 1690.22 566.533C1686.91 560.776 1683.74 555.36 1683.19 554.496C1682.64 553.633 1681.46 551.513 1680.56 549.786C1679.67 548.059 1677.99 545.233 1676.82 543.506C1675.66 541.779 1673.9 538.953 1672.91 537.226C1669.69 531.605 1659.21 516.351 1656.97 514.025C1655.76 512.778 1652.69 510.712 1650.14 509.435C1645.56 507.137 1645.27 507.125 1623.84 508.278C1611.92 508.919 1594.35 509.98 1584.79 510.637C1567.92 511.797 1567.27 511.766 1562.78 509.594C1556.97 506.782 1555.03 505.139 1549.07 497.977C1543.98 491.846 1541.07 488.555 1529.16 475.401C1520.42 465.739 1488.96 434.886 1476.69 423.931C1466.12 414.501 1463.64 411.233 1462.01 404.624C1460.95 400.301 1461.02 398.052 1462.38 391.894C1463.29 387.781 1464.79 380.647 1465.72 376.042C1466.64 371.436 1467.92 365.078 1468.56 361.912C1475.71 326.473 1475.41 322.314 1465.05 313.236C1459.06 307.986 1432.71 290.747 1418.58 282.834C1415.63 281.18 1413.05 279.457 1412.86 279.003C1412.66 278.55 1412.12 278.18 1411.66 278.18C1411.19 278.18 1405.07 274.829 1398.06 270.735C1384.64 262.908 1374.23 257.294 1362.14 251.382C1353.85 247.323 1346 246.669 1339.14 249.464C1335.71 250.861 1313.71 266.872 1308.4 271.836C1307.44 272.735 1305.31 274.412 1303.66 275.563C1302.02 276.714 1297.08 280.482 1292.69 283.936C1276.61 296.582 1271.32 298.02 1258.08 293.342C1253.65 291.779 1248.09 289.834 1245.73 289.021C1243.37 288.208 1240.47 287.126 1239.29 286.618C1238.11 286.109 1233.76 284.651 1229.63 283.377C1225.49 282.104 1219.45 280.212 1216.21 279.174C1208.98 276.864 1196.14 273.308 1181.85 269.658C1168.68 266.292 1161.4 264.633 1152.33 262.92C1134.08 259.479 1129.64 255.579 1122.97 237.16C1117.96 223.342 1114.47 214.036 1113.03 210.67C1110.61 205.029 1103.48 185.662 1103.48 184.738C1103.48 182.01 1098.29 174.048 1094.71 171.286C1088.96 166.844 1082.41 165.323 1063.7 164.083C1041.86 162.636 977.054 161.932 963.126 162.991ZM964.445 321.209C930.507 323.709 894.034 328.48 878.406 332.462C876.127 333.043 869.914 334.523 864.599 335.751C852.022 338.656 844.808 340.606 822.192 347.216C814.03 349.601 805.102 352.693 798.947 355.265C797.086 356.042 795.094 356.679 794.52 356.679C793.553 356.679 787.764 358.949 779.622 362.521C777.761 363.337 775.923 364.005 775.537 364.005C774.214 364.005 757.953 371.273 738.45 380.582C726.849 386.119 698.858 401.34 687.535 408.27C675.866 415.412 645.369 436.012 638.067 441.686C637.477 442.145 633.853 444.91 630.015 447.83C623.521 452.771 614.071 460.428 611.337 462.964C610.686 463.568 606.288 467.322 601.565 471.305C596.841 475.289 585.969 485.393 577.407 493.758C549.167 521.345 533.697 538.642 514.339 564.272C496.713 587.607 493.667 591.844 493.667 593.015C493.667 593.609 493.293 594.251 492.836 594.444C492.146 594.733 488.089 600.802 477.874 616.828C465.615 636.058 451.622 662.327 439.155 689.515C435.572 697.33 425.329 722.987 422.31 731.707C420.754 736.205 419.059 740.915 418.545 742.174C417.472 744.801 414.336 754.915 410.37 768.537C399.671 805.29 391.692 850.95 389.521 887.856C388.944 897.642 388.469 911.653 388.463 918.994L388.453 932.338H616.001H843.549L843.875 900.154L844.201 867.969L847.817 860.757C849.806 856.79 853.671 851.343 856.406 848.653C861.315 843.825 871.218 838.416 877.483 837.142L880.704 836.487L881.24 805.651C881.771 775.189 881.81 774.748 884.554 769.06C886.081 765.894 889.764 760.713 892.739 757.547C902.005 747.685 911.689 743.974 928.211 743.953C933.672 743.946 938.142 743.674 938.142 743.348C938.142 742.085 935.079 737.346 918.912 713.601C909.707 700.081 901.934 688.541 901.639 687.958C900.944 686.586 892.687 674.5 891.976 673.815C891.241 673.105 882.986 661.005 882.314 659.649C882.019 659.055 878.878 654.43 875.336 649.373C871.793 644.316 868.297 639.151 867.568 637.895C866.622 636.267 866.237 628.652 866.226 611.358L866.21 587.103L868.989 583.883L871.769 580.663H1014.07H1156.38L1158.91 583.334C1161.44 585.992 1161.45 586.116 1161.45 612.041C1161.45 631.925 1161.12 638.407 1160.06 639.463C1158.98 640.54 1142.64 664.353 1120.7 696.841C1120.11 697.705 1116.96 702.179 1113.69 706.784C1110.42 711.39 1107.43 715.803 1107.06 716.593C1106.68 717.382 1102.58 723.617 1097.95 730.449C1093.31 737.281 1089.52 743.111 1089.52 743.405C1089.52 743.7 1094.16 743.941 1099.82 743.941C1112.16 743.941 1120.04 745.921 1127.93 751.001C1136.02 756.211 1142 763.896 1145.64 773.77C1146.31 775.565 1147.07 789.67 1147.42 806.698L1148.03 836.487L1151.25 837.188C1164.27 840.023 1176.5 850.452 1182.05 863.432C1184.3 868.696 1184.46 870.831 1184.85 900.679L1185.26 932.344L1404.45 932.079L1623.64 931.815L1623.45 904.079C1623.13 857.045 1618.26 818.268 1607.34 775.864C1605.86 770.107 1604 762.807 1603.22 759.64C1600.99 750.667 1591.81 722.84 1589.18 717.093C1588.36 715.279 1587.68 713.395 1587.68 712.906C1587.68 712.104 1580.42 694.112 1578.03 688.991C1577.5 687.84 1576.01 684.543 1574.73 681.665C1573.44 678.786 1570.71 672.899 1568.64 668.582C1566.58 664.264 1564.46 659.79 1563.94 658.638C1563.42 657.487 1562.5 655.839 1561.91 654.975C1561.32 654.112 1560.35 652.228 1559.75 650.788C1559.15 649.349 1557.72 646.653 1556.57 644.797C1555.41 642.942 1552.88 638.573 1550.94 635.089C1549 631.603 1546.45 627.159 1545.27 625.211C1544.09 623.262 1541.54 619.028 1539.61 615.8C1532.7 604.235 1509.31 571.329 1500.79 561.169C1500.25 560.521 1496.54 556.074 1492.54 551.284C1488.54 546.496 1484.52 541.808 1483.6 540.867C1482.68 539.926 1479.03 535.896 1475.48 531.913C1461.71 516.418 1434.02 490.287 1412.68 472.625C1397 459.65 1366.36 437.183 1356.64 431.527C1355.64 430.944 1349.84 427.347 1343.76 423.531C1328.92 414.228 1323.45 410.862 1320.88 409.464C1319.7 408.82 1316.8 407.213 1314.44 405.893C1308.05 402.323 1300.03 398.021 1294.58 395.249C1291.92 393.896 1289.51 392.553 1289.21 392.265C1288.09 391.169 1245.39 371.332 1244.15 371.332C1243.64 371.332 1241.85 370.632 1240.18 369.775C1237.18 368.24 1231.57 365.921 1223.19 362.752C1209.96 357.755 1206.97 356.679 1206.33 356.679C1205.93 356.679 1204.25 356.134 1202.59 355.47C1196.59 353.07 1188.72 350.309 1183.46 348.757C1162.79 342.659 1149.73 339.294 1120.12 332.442C1111.67 330.487 1096.03 327.909 1073.42 324.745C1045.23 320.8 992.995 319.105 964.445 321.209ZM990.66 381.171C990.414 381.402 983.931 382.126 976.255 382.78C953.295 384.736 922.51 391.156 901.639 398.341C898.391 399.459 894.043 400.95 891.976 401.655C889.91 402.361 886.696 403.598 884.836 404.405C882.975 405.211 881.164 405.871 880.811 405.871C879.898 405.871 852.779 418.806 846.345 422.31C837.596 427.074 819.323 439.229 815.475 442.844C812.153 445.966 811.863 451.119 814.833 454.21C818.553 458.08 821.445 459.253 827.221 459.235C833.113 459.217 833.776 458.914 846.59 450.354C857.454 443.097 857.545 443.041 865.843 438.698C877.548 432.571 884.98 429.045 891.976 426.304C895.815 424.801 899.921 423.134 901.102 422.599C906.249 420.27 916.444 417.085 932.237 412.871C982.923 399.348 1045.31 399.269 1097.04 412.662C1109.47 415.881 1127.74 422.033 1137.3 426.215C1147.51 430.684 1168.19 441.065 1169.16 442.209C1169.79 442.947 1170.71 443.551 1171.22 443.551C1172.15 443.551 1187.3 453.452 1195.44 459.379C1205.97 467.04 1222.37 460.515 1219.92 449.639C1219.17 446.311 1206.45 436.086 1193.49 428.387C1182.55 421.894 1165.05 412.913 1155.01 408.646C1143.65 403.818 1125.1 397.036 1118.51 395.302C1116.44 394.759 1112.34 393.629 1109.38 392.789C1093.86 388.381 1071.14 384.403 1049.8 382.355C1035.05 380.94 991.829 380.075 990.66 381.171ZM995.58 440.363C957.486 443.111 917.924 454.879 889.829 471.817C888.944 472.352 885.792 474.19 882.828 475.903C879.863 477.615 875.393 480.856 872.897 483.103C868.992 486.618 868.357 487.784 868.357 491.443C868.357 494.878 868.972 496.203 871.552 498.318C878.002 503.61 886.526 503.174 895.097 497.115C903.487 491.184 908.84 488.09 920.46 482.456C938.793 473.569 951.773 469.561 977.329 464.9C997.829 461.16 1029.51 460.924 1049.26 464.366C1075.86 469.001 1098.36 476.305 1114.35 485.497C1117.28 487.18 1119.88 488.557 1120.12 488.557C1120.36 488.557 1122.39 489.743 1124.63 491.193C1126.88 492.642 1129.61 494.409 1130.71 495.118C1131.81 495.827 1134.92 498.024 1137.61 500C1144.51 505.053 1152.14 505.692 1158.29 501.728C1167.67 495.676 1166.11 490.166 1152.24 480.305C1147.29 476.784 1142.91 473.904 1142.5 473.904C1142.09 473.904 1141 473.264 1140.07 472.482C1137.66 470.461 1119.27 461.273 1110.99 457.954C1076.55 444.144 1033.7 437.611 995.58 440.363ZM990.749 500.723C984.029 501.918 968.53 505.456 966.592 506.238C965.412 506.715 960.624 508.585 955.955 510.393C951.285 512.202 944.35 515.447 940.544 517.605C936.737 519.762 932.501 522.125 931.129 522.856C927.304 524.894 923.111 530.288 923.111 533.172C923.111 537.891 925.998 541.639 931.095 543.537C937.419 545.891 941.447 545.066 949.967 539.669C972.696 525.271 998.544 519.294 1026.51 521.973C1038.18 523.091 1049.51 525.524 1055.7 528.243C1069.12 534.135 1072.85 536.057 1079.32 540.434C1086.07 545 1087.44 545.52 1092.83 545.558C1097.72 545.592 1099.51 545.083 1102.63 542.762C1109.92 537.341 1108.87 531.801 1099.18 524.525C1092.12 519.223 1074.52 510.4 1064.85 507.313C1045.77 501.229 1043.01 500.831 1017.59 500.532C1004.3 500.375 992.225 500.462 990.749 500.723ZM885.535 611.539V623.575H1013.83H1142.13V611.539V599.502H1013.83H885.535V611.539ZM894.899 643.724C895.469 644.444 905.022 658.455 916.126 674.862C927.231 691.268 938.539 707.88 941.255 711.777C943.972 715.675 946.677 719.631 947.267 720.57C948.84 723.07 968.072 751.608 969.012 752.837C971.977 756.712 980.278 769.308 982.29 772.985L983.578 775.34H1013.88H1044.18L1052.09 763.565C1056.44 757.09 1060.18 751.32 1060.4 750.744C1060.63 750.168 1061.55 748.869 1062.46 747.858C1063.36 746.847 1064.63 745.1 1065.27 743.977C1065.91 742.854 1069.46 737.648 1073.15 732.409C1076.84 727.169 1079.86 722.696 1079.86 722.467C1079.86 722.24 1081.8 719.324 1084.16 715.989C1089.59 708.339 1087.84 710.909 1106.84 682.711C1115.76 669.471 1125.42 655.264 1128.3 651.141C1131.18 647.017 1133.54 643.367 1133.54 643.03C1133.54 642.692 1079.61 642.415 1013.7 642.415C917.991 642.415 894.07 642.679 894.899 643.724ZM601.525 687.483C596.806 694.927 593.921 718.695 597.153 723.503C598.13 724.958 599.546 726.148 600.3 726.148C601.053 726.148 605.544 728.647 610.279 731.701L618.888 737.255L620.85 730.393C622.824 723.487 625.993 715.453 627.891 712.541C632.33 705.73 632.466 705.099 629.894 703.277C621.635 697.427 615.54 693.439 613.533 692.571C612.264 692.021 609.176 690.444 606.671 689.064C604.164 687.684 601.849 686.972 601.525 687.483ZM1416.19 690.551C1409.1 694.25 1400.22 699.75 1394.99 703.676C1393.23 704.993 1393.09 705.585 1394.17 707.074C1398.7 713.325 1405.09 727.768 1405.16 731.904C1405.24 736.939 1406.74 736.998 1414.42 732.269C1418.48 729.768 1423.25 727.013 1425.02 726.149C1427.64 724.873 1428.43 723.621 1429.25 719.491C1430.48 713.276 1428.7 698.508 1425.86 691.423L1423.89 686.529L1416.19 690.551ZM674.57 690.166C665.265 692.512 654.708 698.514 654.708 701.457C654.708 703.184 658.448 706.353 664.371 709.645C669.853 712.692 680.915 723.53 685.007 729.862C688.522 735.302 691.529 742.458 694.443 752.314C701.315 775.563 705.965 784.529 716.424 794.703C725.173 803.213 731.32 806.483 740.288 807.397C753.356 808.729 759.851 803.463 762.906 789.062C765.674 776.011 762.846 758.315 755.359 741.847C743.007 714.679 711.399 691.489 684.769 690.057C680.341 689.819 675.751 689.868 674.57 690.166ZM1328.94 691.658C1321.52 693.766 1306.57 700.582 1304.78 702.674C1304.19 703.363 1303.12 704.099 1302.4 704.309C1300.16 704.964 1286.54 717.025 1282.69 721.768C1277.52 728.128 1275.88 730.744 1270.97 740.445C1263.37 755.487 1261.95 761.338 1261.9 777.957C1261.85 791.27 1262.07 793.02 1264.3 797.101C1267.43 802.833 1269.94 805.25 1274.83 807.239C1279.83 809.277 1283.28 809.25 1289.67 807.126C1309.38 800.579 1321.22 785.429 1330.04 755.454C1335.3 737.568 1340.04 728.438 1348.59 719.72C1352.25 715.988 1363.66 707.308 1364.9 707.308C1365.25 707.308 1366.79 706.173 1368.32 704.786C1371.74 701.694 1371.18 699.9 1365.69 696.356C1355.16 689.56 1342.16 687.899 1328.94 691.658ZM643.296 707.4C638.148 708.855 631.972 715.631 628.942 723.151C626.565 729.05 626.259 731.366 626.266 743.417C626.273 755.428 626.607 757.945 629.106 764.874C633.237 776.323 638.196 785.356 644.905 793.657C660.974 813.536 680.537 824.655 702.148 826.192C712.648 826.938 722.752 825.518 729.704 822.319C738.996 818.044 740.959 814.77 734.996 813.493C733.096 813.087 730.802 812.381 729.897 811.926C728.991 811.472 725.622 809.832 722.409 808.282C710.703 802.635 700.866 793.997 695.065 784.269C692.527 780.013 686.688 763.652 682.538 749.174C679.83 739.723 676.562 731.458 673.02 725.101C669.326 718.47 659.022 709.004 653.857 707.496C649.041 706.089 647.966 706.08 643.296 707.4ZM1370.92 707.61C1366.03 709.132 1357.04 717.888 1352.37 725.684C1348.87 731.519 1344.97 741.797 1341.26 754.931C1336.2 772.805 1334.07 778.256 1328.98 786.327C1325.79 791.375 1316.77 800.518 1311.63 803.918C1307.56 806.616 1295.62 812.274 1291.36 813.532C1286.66 814.918 1285.67 816.234 1287.84 818.211C1291.47 821.501 1301.57 825.314 1310.18 826.644C1330.24 829.742 1353.56 821.071 1371.6 803.801C1386.49 789.54 1394.56 775.088 1399.15 754.407C1401.41 744.23 1401.34 740.319 1398.67 730.153C1395.43 717.765 1389.16 709.439 1381.47 707.287C1377.11 706.068 1375.74 706.11 1370.92 707.61ZM574.59 725.775C574.228 727.177 574.515 732.831 575.227 738.341C577.535 756.225 584.701 770.803 597.12 782.88C607.668 793.138 609.508 794.432 621.963 800.358C632.38 805.314 642.704 808.977 650.414 810.452L654.172 811.171L651.318 808.956C649.749 807.737 648.008 806.74 647.451 806.74C645.739 806.74 634.679 794.647 631.493 789.291C629.838 786.511 628.104 784.08 627.639 783.888C627.174 783.696 626.791 782.989 626.788 782.318C626.784 781.646 626.02 779.684 625.089 777.957C621.841 771.925 618.348 759.754 617.682 752.139C616.627 740.088 616.764 740.332 608.452 735.66C604.265 733.307 600.519 731.378 600.128 731.375C599.737 731.37 597.968 730.609 596.196 729.682C593.199 728.112 587.1 726.158 578.743 724.09C575.594 723.311 575.181 723.477 574.59 725.775ZM1439.52 726.061C1432.48 728.225 1420.32 733.724 1414.14 737.536C1409.73 740.255 1409.69 740.34 1408.94 748.127C1408.22 755.663 1404.83 769.797 1402.93 773.192C1402.43 774.085 1400.77 777.407 1399.24 780.574C1395.58 788.136 1390.53 795.729 1386.37 799.943C1383.47 802.89 1374.94 809.444 1372.95 810.262C1368.19 812.222 1382.81 809.321 1388.83 807.113C1417.36 796.644 1433.72 783.025 1444.61 760.687C1448.29 753.141 1451.33 740.042 1451.33 731.707V724.054L1448.38 724.149C1446.75 724.202 1442.77 725.062 1439.52 726.061ZM916.721 763.992C912.257 765.258 907.421 769.067 903.786 774.181C901.103 777.956 901.102 777.965 900.772 807.016L900.441 836.076L934.59 835.799L968.74 835.523L969.028 812.136L969.318 788.749L966.071 783.353C964.284 780.385 960.52 774.66 957.706 770.63L952.588 763.304L936.508 763.123C927.663 763.024 918.76 763.415 916.721 763.992ZM1072.66 767.752C1070.79 770.486 1067.17 775.55 1064.63 779.004L1060 785.283L1059.67 810.665L1059.35 836.046H1093.76H1128.17V810.978C1128.17 781.408 1127.49 777.262 1121.58 770.714C1115.63 764.119 1110.5 762.78 1091.19 762.78H1076.07L1072.66 767.752ZM989.077 795.527C988.786 796.267 988.681 804.863 988.843 814.629L989.138 832.383L1014.1 832.663L1039.06 832.945V813.562V794.18H1014.33C995.167 794.18 989.488 794.483 989.077 795.527ZM877.483 857.366C871.454 860.148 868.55 862.909 865.249 869C863.106 872.956 862.989 874.697 862.989 902.759V932.346L1014.1 932.08L1165.21 931.815V901.985V872.156L1162.57 868.007C1159.23 862.771 1156.61 860.216 1151.82 857.534C1148.08 855.434 1146.48 855.406 1015.44 855.149L882.851 854.889L877.483 857.366ZM264.951 957.27C261.333 958.833 258.728 961.318 256.543 965.292L254.251 969.463V1161.94V1354.42L256.474 1357.92C259.96 1363.42 264.324 1364.15 277.334 1361.43C293.825 1357.97 300.084 1356.62 311.153 1354.13C321.311 1351.84 325.159 1351.05 346.582 1346.88C365.687 1343.16 380.004 1340.51 389.391 1338.95C394.335 1338.13 399.166 1337.22 400.127 1336.93C401.087 1336.64 406.704 1335.63 412.609 1334.7C418.514 1333.76 426.968 1332.38 431.397 1331.62C438.975 1330.33 457.969 1327.37 474.878 1324.85C479.012 1324.23 486.983 1323.04 492.593 1322.2C498.203 1321.36 507.105 1320.18 512.375 1319.56C517.647 1318.95 522.236 1318.29 522.575 1318.08C522.914 1317.89 528.747 1317.18 535.537 1316.52C542.328 1315.86 550.3 1314.88 553.252 1314.33C556.204 1313.79 563.934 1312.88 570.43 1312.3C576.925 1311.72 585.621 1310.78 589.755 1310.19C596.98 1309.17 606.89 1308.16 631.089 1305.95C637.289 1305.39 649.609 1304.23 658.466 1303.38C667.323 1302.53 679.401 1301.56 685.306 1301.23C691.211 1300.91 700.39 1300.18 705.705 1299.63C722.896 1297.84 782.485 1294.66 854.937 1291.68C918.091 1289.09 1098.12 1289.08 1160.92 1291.67C1235.03 1294.73 1291.62 1297.73 1311.22 1299.63C1317.13 1300.21 1326.55 1300.94 1332.16 1301.26C1337.77 1301.58 1349.36 1302.53 1357.92 1303.36C1366.49 1304.19 1379.29 1305.39 1386.37 1306.01C1404.73 1307.64 1426.83 1309.89 1436.83 1311.16C1441.56 1311.76 1450.01 1312.75 1455.62 1313.37C1473.41 1315.32 1513.64 1320.45 1528.09 1322.61C1538.19 1324.12 1549.69 1325.77 1561.37 1327.4C1566.69 1328.14 1573.69 1329.25 1576.94 1329.88C1580.19 1330.5 1587.19 1331.73 1592.51 1332.61C1605.99 1334.83 1621.21 1337.4 1630.08 1338.95C1634.22 1339.67 1642.19 1341.05 1647.8 1342.02C1653.41 1342.98 1661.38 1344.47 1665.51 1345.32C1669.65 1346.18 1676.41 1347.55 1680.54 1348.37C1707.07 1353.66 1716.05 1355.56 1732.08 1359.26C1749.97 1363.38 1754.46 1363.87 1758.66 1362.16C1760.78 1361.3 1763.39 1359.28 1764.47 1357.68C1766.35 1354.88 1766.44 1346.8 1766.72 1165.85C1766.9 1044.37 1766.62 974.95 1765.94 971.343C1765.36 968.258 1764.14 965.017 1763.24 964.139C1762.34 963.261 1761.6 962.098 1761.6 961.555C1761.6 961.011 1760.03 959.634 1758.11 958.493C1754.64 956.43 1750.49 956.42 1010.61 956.489C601.404 956.528 265.857 956.878 264.951 957.27ZM1439.08 1010.59C1391.61 1010.86 1387.33 1011.2 1390.14 1014.51C1390.89 1015.39 1390.9 1016.71 1390.18 1018.56C1388.74 1022.25 1390.23 1025.72 1394.52 1028.7L1397.99 1031.11L1397.3 1081.26C1396.91 1109.04 1397.11 1152.95 1397.74 1179.71C1398.36 1206.28 1398.57 1230.45 1398.2 1233.43C1397.41 1239.69 1394.24 1244.17 1391.93 1242.3C1387.57 1238.77 1385.98 1218.93 1385.21 1158.42C1384.76 1123.69 1384.14 1105.67 1383.33 1103.75C1382.04 1100.72 1377.23 1098.14 1374.66 1099.1C1373.81 1099.42 1372.54 1099.01 1371.85 1098.19C1370.93 1097.12 1370.03 1096.99 1368.62 1097.73C1364.1 1100.09 1327.27 1098.22 1324.16 1095.47C1320.55 1092.29 1320.35 1094.05 1320.35 1127.95C1320.35 1165.02 1320.35 1165.03 1327.51 1166.38C1331.09 1167.05 1332.04 1166.38 1337.95 1159.03L1340.39 1155.99L1341.12 1174.21C1341.51 1184.23 1342.14 1194.2 1342.51 1196.36L1343.17 1200.28H1335.05C1330.58 1200.28 1325.73 1199.84 1324.25 1199.29C1320.81 1198.01 1316.88 1191.35 1313.72 1181.44C1311.25 1173.67 1311.22 1173.1 1311.22 1121.78V1069.97L1313.75 1064.53C1317.51 1056.41 1319.64 1055.44 1334.6 1054.97C1352.5 1054.41 1353.77 1054.77 1362.41 1062.9C1370.11 1070.15 1373.95 1071.51 1377.84 1068.36C1380.95 1065.84 1381.36 1062.93 1381.72 1040.41C1382.05 1019.95 1381.93 1018.22 1380.03 1016.18C1378.63 1014.67 1376.69 1013.98 1373.86 1013.98C1371.59 1013.98 1369.73 1013.51 1369.73 1012.93C1369.73 1011.29 1320.78 1011.67 1308 1013.42C1297.68 1014.82 1287.65 1017.83 1284.23 1020.54C1272.45 1029.86 1267.76 1040.22 1265.29 1062.4C1263.49 1078.58 1263.53 1162.07 1265.34 1178.83C1267.53 1199.04 1271.55 1213.95 1278.52 1227.71C1280.76 1232.15 1283.24 1236.54 1284.03 1237.48C1287.9 1242.1 1297.59 1251.39 1300.1 1252.9C1305.81 1256.34 1315.78 1258.95 1326.79 1259.9C1332.99 1260.43 1341.2 1261.16 1345.04 1261.51C1348.88 1261.86 1363.37 1262.86 1377.25 1263.72C1401.31 1265.21 1420.37 1266.63 1452.4 1269.3C1492.36 1272.64 1494.06 1272.65 1496.47 1269.82C1497.13 1269.05 1498.07 1264.51 1498.57 1259.73C1501.27 1233.73 1503.03 1219.08 1504.01 1214.41C1504.61 1211.53 1505.4 1204.81 1505.75 1199.47C1506.37 1190.31 1506.27 1189.62 1503.91 1187.17C1502.29 1185.49 1500.24 1184.58 1498.06 1184.58C1496.21 1184.58 1494.1 1184 1493.37 1183.29C1492.32 1182.26 1491.46 1182.72 1489.2 1185.53C1479.27 1197.9 1470.64 1202.42 1455.52 1203.17L1445.22 1203.69L1444.52 1197.12C1444.13 1193.51 1443.81 1182.15 1443.81 1171.87V1153.18H1453.24C1462.47 1153.18 1467.43 1154.68 1467.43 1157.47C1467.43 1158.04 1468.49 1159.89 1469.78 1161.6C1472.65 1165.38 1478.06 1165.85 1481.39 1162.6C1483.44 1160.6 1483.54 1159.11 1483.54 1129.23C1483.54 1100.94 1483.36 1097.72 1481.65 1095.67C1480.41 1094.18 1478.48 1093.36 1476.01 1093.3C1473.95 1093.24 1471.74 1092.5 1471.11 1091.66C1470.19 1090.44 1469.47 1090.37 1467.69 1091.3C1466.44 1091.95 1460.57 1092.48 1454.59 1092.48H1443.76L1444.06 1074.95L1444.35 1057.41L1449.95 1057.1C1453.02 1056.92 1460.34 1057.21 1466.21 1057.73L1476.87 1058.67L1482.4 1064.06C1488.43 1069.93 1491.05 1070.61 1495.33 1067.4C1497.74 1065.6 1498.07 1064.41 1498.75 1055.13C1500.57 1029.84 1500.97 1020.35 1500.31 1017.8C1499.49 1014.6 1494.07 1011.47 1491 1012.42C1489.85 1012.78 1488.9 1012.62 1488.9 1012.07C1488.9 1011.51 1488.3 1010.89 1487.56 1010.69C1486.82 1010.48 1465.01 1010.44 1439.08 1010.59ZM1505.46 1012.02C1505.14 1012.53 1505.15 1013.82 1505.5 1014.9C1505.85 1015.97 1505.68 1018.02 1505.12 1019.46C1503.89 1022.61 1505.28 1025.62 1510.18 1030.38C1514.18 1034.27 1514.02 1030.83 1511.99 1069.45C1509.97 1107.67 1509.98 1143.11 1512 1179.44C1512.89 1195.32 1513.73 1216.75 1513.87 1227.06L1514.13 1245.81L1510.95 1250.52C1508.54 1254.08 1507.74 1256.51 1507.68 1260.46C1507.59 1265.95 1509.43 1271.81 1511.66 1273.15C1513.38 1274.19 1531.74 1276.25 1557.08 1278.25C1568.3 1279.14 1581.58 1280.3 1586.6 1280.85C1591.62 1281.39 1599.69 1281.97 1604.52 1282.14C1617.82 1282.6 1617.42 1283.38 1618.37 1254.67C1619.09 1232.93 1619.24 1231.66 1620.66 1235.46C1621.49 1237.7 1623.13 1242.12 1624.31 1245.29C1633.04 1268.72 1646.08 1282.78 1666.59 1290.85C1671.6 1292.82 1688.07 1295.62 1695.04 1295.68C1701.48 1295.74 1712.59 1292.85 1717.48 1289.84C1725.33 1285 1732.53 1274.44 1734.82 1264.39C1735.38 1261.94 1736.41 1257.7 1737.12 1254.97C1738.07 1251.27 1738.36 1225.45 1738.23 1153.85C1738.07 1061.68 1737.97 1057.37 1735.94 1049.71C1730.92 1030.86 1723.76 1022.19 1708.71 1016.7C1686.39 1008.57 1656.3 1008.74 1638.74 1017.1C1629.31 1021.6 1622.62 1030.2 1617.87 1043.94C1613.4 1056.88 1612.07 1073.27 1611.6 1121.26C1611.35 1146.01 1611.62 1171.45 1612.19 1177.78C1612.76 1184.11 1612.85 1189.68 1612.39 1190.16C1611.93 1190.64 1610.53 1190.41 1609.29 1189.66C1607.27 1188.43 1606.82 1188.56 1605.23 1190.88C1600.76 1197.39 1591.17 1205.27 1584.92 1207.56C1578.89 1209.78 1562.06 1211.21 1560.43 1209.65C1560.1 1209.33 1559.27 1195.91 1558.58 1179.82C1557.28 1149.28 1557.89 1076.72 1559.67 1050.85C1560.7 1035.74 1561.49 1033.61 1567.97 1028.29C1570.7 1026.06 1571.57 1024.51 1571.57 1021.93C1571.57 1017.64 1567.81 1013.98 1563.4 1013.98C1561.63 1013.98 1559.73 1013.56 1559.17 1013.05C1557.81 1011.82 1506.22 1010.82 1505.46 1012.02ZM1214.87 1012.64C1207.24 1012.99 1204.9 1013.91 1207.58 1015.52C1208.23 1015.91 1208.18 1017.07 1207.44 1018.65C1205.69 1022.4 1207.21 1026.38 1211.31 1028.73C1213.29 1029.87 1215.16 1031.85 1215.44 1033.12C1215.72 1034.39 1215.65 1047.21 1215.28 1061.6L1214.6 1087.77L1208.93 1071.02C1202.18 1051.06 1201.55 1049.5 1193.6 1033.34C1190.2 1026.43 1186.05 1019.55 1184.37 1018.04C1179.76 1013.91 1173.33 1012.93 1150.92 1012.93H1130.6L1130.73 1019.95C1130.85 1026.65 1131 1027.05 1134.08 1028.59C1135.85 1029.48 1137.66 1030.67 1138.11 1031.25C1138.55 1031.82 1138.79 1075.15 1138.64 1127.54L1138.37 1222.78L1135.93 1226.61C1134.59 1228.71 1132.88 1230.66 1132.12 1230.94C1128.9 1232.15 1120.5 1214.69 1117.87 1201.33C1116.18 1192.79 1112.75 1175.04 1110.38 1162.6C1108.47 1152.55 1104.95 1132.44 1102.89 1119.69C1102 1114.22 1101 1108.88 1100.67 1107.83C1100.33 1106.78 1099.41 1102.07 1098.62 1097.37C1094.27 1071.46 1088.55 1045.87 1084.18 1032.82C1077.94 1014.18 1078.82 1014.61 1046.31 1014.17C1024.7 1013.87 1021.88 1014.03 1021.88 1015.48C1021.88 1016.38 1022.46 1017.12 1023.17 1017.12C1024.17 1017.12 1024.17 1017.4 1023.17 1018.37C1021.1 1020.39 1021.61 1026.33 1024.03 1028.35C1026.7 1030.58 1026.7 1032.2 1024.09 1042.73C1019.84 1059.84 1015.37 1080.23 1012.25 1096.66C1010.99 1103.28 1009.25 1112.23 1008.38 1116.55C1007.51 1120.87 1006.32 1127.23 1005.74 1130.68C1004.41 1138.51 1000.77 1159.13 999.359 1166.79C998.775 1169.96 997.511 1177.02 996.553 1182.49C991.937 1208.8 988.57 1217.93 980.451 1226.19C976.185 1230.53 975.947 1231.11 975.88 1237.25C975.827 1242.26 976.297 1244.29 977.973 1246.26L980.134 1248.81L1010.63 1248.88C1045.17 1248.96 1044.72 1249.06 1044.72 1241.11C1044.72 1237.5 1044.04 1236.09 1040.67 1232.73C1036.73 1228.79 1036.64 1228.53 1037.35 1223.12C1037.75 1220.06 1038.64 1214.84 1039.32 1211.53L1040.56 1205.52H1054.6H1068.63L1069.9 1211.01C1072.99 1224.43 1073.01 1224.13 1068.48 1228.65C1064.89 1232.23 1064.51 1233.05 1065.64 1234.8C1066.45 1236.07 1066.54 1237.05 1065.88 1237.45C1062.83 1239.29 1065.95 1246.87 1070.73 1249.25C1071.98 1249.87 1089.06 1250.62 1111.53 1251.05C1132.79 1251.45 1159.01 1252.09 1169.79 1252.46C1192.88 1253.26 1195.4 1252.85 1196.68 1248.14C1197.95 1243.51 1196.65 1239.75 1192.26 1235.34C1189.07 1232.14 1188.36 1230.47 1187.25 1223.54C1186.53 1219.09 1185.75 1200.86 1185.5 1183.01C1184.97 1145.66 1184.48 1146.11 1194.11 1175.16C1197.45 1185.24 1200.83 1195.13 1201.62 1197.14C1202.41 1199.16 1204.06 1203.52 1205.29 1206.84C1211.4 1223.26 1218.29 1240.55 1221.65 1247.9C1224.84 1254.86 1226.01 1255.19 1248.98 1255.57C1268.83 1255.9 1269.47 1255.84 1271.53 1253.63C1273.02 1252.02 1273.61 1249.96 1273.54 1246.68C1273.45 1242.83 1272.83 1241.48 1270 1238.95C1268.06 1237.23 1265.55 1233.25 1264.24 1229.86C1261.94 1223.85 1261.93 1223.5 1261.93 1130.68C1261.93 1046.2 1262.1 1037.16 1263.72 1033.59C1264.69 1031.42 1266.33 1029.34 1267.34 1028.96C1270.41 1027.81 1273.11 1024.59 1273.11 1022.06C1273.11 1018.13 1270.21 1015.28 1264.79 1013.88C1259.73 1012.58 1231.6 1011.88 1214.87 1012.64ZM276.086 1014.56C275.715 1015.51 276.015 1016.65 276.755 1017.09C277.709 1017.67 277.755 1018.11 276.912 1018.62C274.04 1020.35 276.189 1027.56 280.579 1030.93C285.197 1034.47 285.667 1037.59 285.08 1060.8C283.57 1120.4 280.702 1201.28 278.907 1234.82C277.792 1255.65 275.182 1270.08 271.889 1273.63C271.046 1274.54 270.355 1275.68 270.355 1276.16C270.355 1276.65 269.563 1277.9 268.594 1278.94C266.246 1281.47 266.46 1294.6 268.91 1298.24C270.308 1300.32 271.468 1300.75 275.579 1300.7C278.315 1300.66 282.97 1300.19 285.923 1299.65C288.875 1299.1 296.324 1297.96 302.476 1297.1C316.87 1295.09 326.107 1293.43 329.106 1292.3C330.419 1291.81 332.241 1289.67 333.154 1287.53C335.114 1282.96 334.055 1278.5 330.001 1274.23C325.553 1269.55 324.528 1259.79 325.992 1236.02C326.689 1224.71 327.579 1203.45 327.972 1188.77C328.364 1174.09 328.788 1162.55 328.913 1163.13C329.04 1163.7 329.668 1166.06 330.309 1168.36C330.951 1170.66 332.275 1176.55 333.252 1181.44C336.449 1197.45 338.155 1205.88 340.237 1215.98C341.365 1221.45 342.861 1229.13 343.561 1233.05C345.212 1242.28 348.232 1245.81 353.743 1244.94C358.228 1244.23 359.945 1242.26 361.644 1235.87C362.333 1233.28 363.76 1228.1 364.816 1224.35C365.871 1220.61 367.567 1214.49 368.582 1210.75C369.598 1207.01 371.286 1200.88 372.331 1197.14C373.377 1193.4 375.321 1186.34 376.652 1181.44C381.621 1163.16 382.115 1163.27 381.55 1182.49C380.801 1208.01 378.939 1243.95 378.142 1248.29C377.213 1253.35 372.875 1262.29 370.202 1264.65C366.991 1267.48 367.114 1279.43 370.395 1283.49C372.72 1286.37 372.8 1286.39 382.158 1285.74C387.34 1285.38 393.654 1284.65 396.189 1284.1C398.725 1283.56 406.547 1282.58 413.573 1281.91C420.598 1281.25 427.603 1280.23 429.14 1279.64C430.677 1279.06 436.364 1278.43 441.777 1278.23C447.19 1278.04 456.852 1277.17 463.249 1276.3C469.646 1275.43 478.646 1274.41 483.252 1274.04C493.396 1273.22 496.725 1271.03 497.581 1264.65C498.079 1260.93 497.684 1259.95 494.025 1255.8L489.909 1251.13L490.12 1214.45C490.237 1194.28 490.874 1162.71 491.535 1144.29C492.197 1125.86 493.112 1094.3 493.569 1074.15C494.459 1034.88 494.485 1034.72 500.231 1031.51C502.803 1030.07 503.329 1029.09 503.329 1025.74C503.329 1020.39 501.531 1018.25 496.347 1017.46C493.988 1017.09 491.795 1016.41 491.476 1015.94C490.575 1014.61 438.844 1014.67 437.481 1016C435.846 1017.59 432.259 1017.38 429.543 1015.53C426.15 1013.21 385.354 1013.7 384.092 1016.07C381.131 1021.63 378.79 1026.75 378.79 1027.67C378.79 1028.26 377.843 1030.77 376.686 1033.25C373.463 1040.14 364.564 1065.64 359.685 1081.95C357.737 1088.47 355.171 1091.62 355.171 1087.51C355.171 1083.73 341.301 1039.88 336.386 1028.11C330.404 1013.78 330.722 1013.9 297.984 1013.26C279.055 1012.89 276.69 1013.03 276.086 1014.56ZM798.077 1014.76C769.504 1014.94 751.55 1015.44 750.892 1016.08C749.514 1017.43 745.209 1017.42 744.355 1016.07C743.389 1014.55 691.569 1014.66 690.6 1016.19C690.194 1016.83 690.5 1017.74 691.281 1018.21C692.415 1018.89 692.44 1019.61 691.413 1021.81C689.524 1025.85 690.943 1029.49 695.508 1032.29C698.494 1034.13 699.669 1035.66 700.05 1038.19C700.333 1040.07 700.324 1052.58 700.03 1066L699.496 1090.38H685.001H670.506L671.197 1083.95C671.576 1080.41 671.886 1068.17 671.886 1056.74C671.886 1034.21 671.53 1035.68 678.167 1030.89C680.032 1029.54 680.69 1028.05 680.69 1025.16C680.69 1020.02 679.147 1018.41 673.408 1017.57C670.8 1017.19 668.665 1016.46 668.665 1015.95C668.665 1015.44 656.808 1015.02 642.059 1015.02H615.452L615.246 1021.8C615.042 1028.51 615.079 1028.61 619.246 1031.87C622.869 1034.71 623.548 1035.91 624.144 1040.56C625.347 1049.96 621.536 1212.16 619.855 1223.06C618.419 1232.37 616.021 1238.09 612.288 1241.11C611.139 1242.04 610.69 1244.56 610.69 1250.08C610.69 1256.69 611.027 1258.08 613.106 1259.99C615.203 1261.92 616.442 1262.14 622.5 1261.7C626.338 1261.43 638.416 1260.66 649.34 1260.01C671.908 1258.66 675.734 1257.57 676.77 1252.19C677.547 1248.15 675.945 1243.88 672.01 1239.51C669.463 1236.68 668.893 1234.94 668.385 1228.42C667.685 1219.44 668.913 1154.68 669.8 1153.82C670.13 1153.5 676.531 1152.92 684.025 1152.53L697.653 1151.82L697.601 1170.55C697.573 1180.86 697.147 1197.06 696.655 1206.56C695.684 1225.31 694.748 1228.87 688.893 1236.08C686.228 1239.36 685.716 1240.67 686.582 1242C687.332 1243.16 687.344 1244.47 686.618 1246.03C685.166 1249.14 687.523 1254.59 690.861 1255.82C693.488 1256.8 742.09 1255.25 747.039 1254.03C748.515 1253.67 754.796 1253.29 760.996 1253.2C796.149 1252.63 842.552 1251.23 845.717 1250.63C850.548 1249.72 852.911 1246.37 855.006 1237.44C855.95 1233.41 857.68 1226.11 858.848 1221.21C860.017 1216.32 861.635 1209.25 862.445 1205.51C863.253 1201.77 864.431 1197.38 865.061 1195.76C865.691 1194.15 866.511 1189.63 866.884 1185.73C867.505 1179.21 867.356 1178.45 865.072 1176.38C862.626 1174.15 861.082 1173.69 857.353 1174.06C856.32 1174.16 855.474 1173.75 855.474 1173.13C855.474 1170.76 852.646 1172.23 847.987 1177.01C841.797 1183.37 836.998 1186.75 830.193 1189.55C824.37 1191.95 807.241 1194.28 805.672 1192.89C804.611 1191.94 805.336 1149.38 806.431 1148.31C807.696 1147.08 822.681 1146.69 825.641 1147.81C827.243 1148.42 829.785 1150.82 831.291 1153.14C833.646 1156.78 834.558 1157.37 837.821 1157.37C840.344 1157.37 842.439 1156.57 844.075 1154.97C846.481 1152.62 846.55 1151.95 847.165 1124.88C847.512 1109.65 847.525 1095.85 847.195 1094.21C846.493 1090.72 841.327 1087.21 838.103 1088.04C836.908 1088.34 835.547 1087.99 835.08 1087.25C834.418 1086.21 833.468 1086.17 830.736 1087.1C828.813 1087.75 822.722 1088.29 817.201 1088.29H807.161V1080.07C807.161 1075.56 807.474 1068.26 807.856 1063.85L808.549 1055.84H823.984H839.418L843.956 1059.88C851.828 1066.88 854.339 1067.36 859.5 1062.83C861.841 1060.78 861.915 1060.11 861.915 1041.12C861.915 1023.64 861.703 1021.28 859.933 1019.15C858.565 1017.5 856.746 1016.74 854.045 1016.68C851.895 1016.63 849.903 1016.01 849.618 1015.29C849.333 1014.57 847.997 1014.09 846.65 1014.23C845.303 1014.36 823.446 1014.61 798.077 1014.76ZM872.574 1014.75L866.592 1015.12L866.401 1021.84L866.211 1028.57L870.631 1030.96L875.05 1033.34L874.348 1119.69C873.557 1217.1 873.259 1221.46 866.968 1228.2C863.982 1231.4 863.5 1232.71 863.331 1238.09C863.17 1243.25 863.56 1244.77 865.653 1247.15C868.094 1249.91 868.494 1250 879.267 1249.96C908.322 1249.87 966.808 1248.03 968.563 1247.15C971.403 1245.73 973.44 1240.23 975.189 1229.26C976.895 1218.57 979.108 1206.11 981.544 1193.48C984.536 1177.96 983.151 1173.05 975.731 1172.84C973.68 1172.78 971.355 1172.1 970.562 1171.33C969.356 1170.16 968.22 1170.89 963.605 1175.81C954.118 1185.93 944.343 1190.37 929.016 1191.53L920.427 1192.18L920.74 1146.25C921.11 1091.73 922.501 1036.06 923.547 1033.86C923.958 1033 925.839 1031.35 927.729 1030.19C930.375 1028.56 931.237 1027.23 931.484 1024.38C931.87 1019.92 929.418 1017.31 924.338 1016.77C922.434 1016.57 920.315 1015.86 919.632 1015.19C918.445 1014.03 888.555 1013.75 872.574 1014.75ZM539.783 1017.09C523.065 1020.13 513.932 1026.24 507.719 1038.54C500.699 1052.45 499.495 1063.12 497.91 1125.6C496.624 1176.22 497.351 1204.21 500.242 1215.46C500.834 1217.76 501.936 1222.24 502.691 1225.4C503.446 1228.57 505.652 1234.46 507.595 1238.48C514.235 1252.26 522.046 1259.63 535.001 1264.32C544.476 1267.75 565.326 1267.45 591.139 1263.51C596.178 1262.74 596.826 1261.18 606.916 1225.4C609.109 1217.63 611.784 1208.21 612.861 1204.47C617.18 1189.47 617.562 1187.08 616.162 1183.78C614.608 1180.12 610.686 1177.79 607.475 1178.6C606.048 1178.97 604.971 1178.63 604.605 1177.7C603.755 1175.54 603.109 1175.79 598.344 1180.13C583.411 1193.73 566.945 1203.23 557.546 1203.69L552.178 1203.95L549.127 1197.8C544.27 1188.03 543.868 1182.04 544.644 1131.21C545.525 1073.55 546.476 1067.25 555.066 1062.16C558.8 1059.94 573.895 1058.3 580.104 1059.44C582.776 1059.93 586.139 1062.17 591.266 1066.89C599.692 1074.64 603.153 1075.5 607.551 1070.94C610.103 1068.29 610.16 1067.83 610.469 1047.13C610.754 1028.01 610.59 1025.67 608.743 1022.37C607.188 1019.6 605.663 1018.48 602.33 1017.66C599.924 1017.08 597.601 1016.24 597.166 1015.81C596.731 1015.38 585.948 1015.07 573.203 1015.12C555.885 1015.2 547.442 1015.69 539.783 1017.09ZM1489.66 1019.47C1488.16 1020.56 1487.74 1023.59 1487.16 1037.53C1486.78 1046.74 1486.03 1054.81 1485.51 1055.46C1484.36 1056.89 1489.85 1063.75 1491.09 1062.45C1491.91 1061.59 1494.28 1032.31 1494.28 1023.14C1494.27 1017.9 1493.11 1016.97 1489.66 1019.47ZM1251.87 1024.18C1250.22 1027.76 1250.06 1036.32 1250.05 1121.78C1250.03 1211.14 1250.12 1215.77 1252.09 1222.26C1253.22 1226 1255.1 1230.24 1256.25 1231.68L1258.35 1234.3L1257.63 1230.63C1255.65 1220.57 1255.02 1196.75 1254.99 1131.73C1254.96 1061.91 1255.67 1038.18 1258.01 1030.59C1258.74 1028.22 1260.56 1025.87 1262.84 1024.34C1264.86 1023 1266.27 1021.53 1265.99 1021.08C1265.7 1020.63 1262.81 1020.26 1259.57 1020.26C1253.79 1020.26 1253.64 1020.34 1251.87 1024.18ZM1369.72 1036.74C1369.7 1053.14 1369.39 1055.13 1366.73 1055.97C1365.18 1056.45 1370.69 1063.17 1372.64 1063.17C1374.43 1063.17 1375.08 1056.45 1375.09 1037.79L1375.1 1020.26H1372.42H1369.73L1369.72 1036.74ZM1550.89 1023.66C1545.35 1033.84 1543.18 1128 1547.08 1189.03C1548.39 1209.63 1548.41 1209.7 1550.9 1209.7C1553.35 1209.7 1553.4 1209.52 1552.84 1202.11C1551.17 1179.77 1549.88 1129.24 1550.53 1111.32C1553.3 1034.59 1553.57 1032.43 1561.02 1025.59C1563.28 1023.52 1565.13 1021.47 1565.13 1021.04C1565.13 1020.61 1562.34 1020.26 1558.93 1020.26C1553.04 1020.26 1552.65 1020.42 1550.89 1023.66ZM326.628 1027.85C333.207 1045.09 338.536 1061.83 343.87 1082.01C346.076 1090.36 348.669 1099.78 349.632 1102.94L351.383 1108.7L351.729 1103.64C351.929 1100.71 351.19 1095.66 349.964 1091.61C347.273 1082.71 342.459 1066.27 340.56 1059.51C339.752 1056.63 338.625 1053.33 338.056 1052.18C337.486 1051.03 336.545 1048.44 335.962 1046.42C334.649 1041.88 331.824 1034.04 330.497 1031.25C329.948 1030.1 328.778 1027.39 327.897 1025.23C325.156 1018.52 323.989 1020.93 326.628 1027.85ZM1071.29 1022.05C1071.28 1022.75 1072.06 1025.58 1073.02 1028.33C1075.88 1036.46 1081.06 1059.21 1085.26 1082.01C1086.48 1088.63 1088.15 1097.58 1088.98 1101.9C1089.81 1106.21 1090.78 1111.87 1091.15 1114.46C1091.52 1117.05 1092.49 1122.7 1093.32 1127.02C1094.15 1131.33 1095.82 1140.75 1097.04 1147.95C1098.26 1155.14 1099.97 1164.56 1100.84 1168.88C1101.7 1173.2 1102.9 1179.32 1103.5 1182.49C1106.99 1200.99 1108.63 1206.68 1113.5 1217.03C1115.68 1221.67 1118.51 1225.37 1118.51 1223.59C1118.51 1223.09 1118.09 1222.23 1117.57 1221.69C1116.24 1220.28 1112.35 1207.96 1111.1 1201.24C1110.53 1198.12 1109.05 1190.39 1107.81 1184.06C1104.69 1168.04 1101.38 1150.01 1099.74 1140.1C1096.34 1119.49 1094.73 1110.54 1093.83 1107.13C1093.3 1105.11 1092.32 1099.48 1091.65 1094.6C1090.98 1089.72 1090.2 1085.37 1089.92 1084.93C1089.63 1084.48 1088.73 1080.47 1087.91 1076C1084.72 1058.69 1082.62 1050.1 1077.41 1033.12C1075.28 1026.17 1071.35 1019.06 1071.29 1022.05ZM422.747 1023.99C420.856 1026.21 420.045 1040.61 418.562 1098.23C417.413 1142.93 416.129 1182.44 414.582 1220.69C413.881 1238.03 415.687 1251.69 419.266 1256.11C421.136 1258.42 421.203 1257.22 421.365 1218.66C421.458 1196.75 422.104 1167.05 422.8 1152.66C423.496 1138.27 424.411 1106.48 424.833 1082.01C425.674 1033.3 425.611 1033.75 432.406 1027.55C434.004 1026.09 435.115 1024.33 434.875 1023.63C434.213 1021.69 424.456 1021.98 422.747 1023.99ZM850.106 1037C850.106 1053.92 849.701 1054.45 842.062 1047.59C836.159 1042.29 831.273 1041.42 811.456 1042.17L795.888 1042.76L795.599 1066.05L795.311 1089.34H797.991H800.672L800.964 1069.71L801.256 1050.09L817.897 1049.34C837.649 1048.46 843.797 1049.67 849.023 1055.47C855.031 1062.14 855.474 1061.12 855.474 1040.67V1022.35H852.79H850.106V1037ZM911.306 1026.52C910.589 1029.12 909.773 1057.9 909.146 1102.67C907.753 1202.14 907.583 1191.91 910.638 1191.91H913.195L913.887 1145.07C914.267 1119.31 914.997 1083.55 915.51 1065.61C916.518 1030.35 916.907 1028.2 922.752 1025.6C927.111 1023.67 925.538 1022.35 918.859 1022.35H912.458L911.306 1026.52ZM483.914 1025.65C482.546 1028.15 481.544 1052.72 479.739 1128.06C479.111 1154.26 478.123 1185.29 477.543 1197.02C476.963 1208.76 476.494 1222.41 476.502 1227.37C476.516 1237.25 478.624 1246.8 481.36 1249.39C482.972 1250.91 483.074 1250.55 482.66 1244.76C482.173 1237.95 483.045 1200.71 485.595 1119.69C486.492 1091.19 487.366 1060.82 487.538 1052.18C487.883 1034.98 488.68 1032.19 494.643 1027.3C496.402 1025.86 497.547 1024.39 497.186 1024.04C496.825 1023.69 493.969 1023.4 490.842 1023.4C486.114 1023.4 484.943 1023.78 483.914 1025.65ZM742.744 1024.17C740.087 1024.39 737.43 1025.04 736.84 1025.61C736.178 1026.24 735.287 1049.65 734.519 1086.51C733.833 1119.44 732.916 1162.63 732.479 1182.49C731.777 1214.38 731.89 1219.28 733.446 1224.48C734.415 1227.71 736.016 1231.01 737.005 1231.81C738.661 1233.14 738.747 1232.8 738.092 1227.49C737.398 1221.87 740.043 1055.69 741.041 1042.24C741.713 1033.19 743.225 1029.42 747.088 1027.2C748.853 1026.18 750.019 1024.91 749.679 1024.37C749.338 1023.84 748.726 1023.48 748.318 1023.58C747.91 1023.68 745.402 1023.95 742.744 1024.17ZM872.651 1024.44C872.651 1025.02 873.164 1025.49 873.788 1025.49C874.413 1025.49 874.627 1025.02 874.262 1024.44C873.897 1023.87 873.386 1023.4 873.125 1023.4C872.864 1023.4 872.651 1023.87 872.651 1024.44ZM598.083 1041.45C597.873 1055.07 597.503 1058.69 596.228 1059.61C594.865 1060.58 595.073 1061.23 597.658 1064.05C599.322 1065.87 601.244 1067.36 601.928 1067.36C602.835 1067.36 603.175 1061.49 603.175 1045.9V1024.44L600.759 1024.45C598.364 1024.45 598.342 1024.59 598.083 1041.45ZM660.693 1026.8C659.705 1031.47 659.038 1046.33 658.826 1068.4L658.609 1090.91H661.221C663.826 1090.91 663.836 1090.87 664.513 1076.78C664.885 1069.01 665.248 1056.12 665.318 1048.13L665.444 1033.62L669.739 1029.43C672.101 1027.13 674.033 1025.06 674.033 1024.84C674.033 1024.62 671.144 1024.44 667.612 1024.44C661.817 1024.44 661.142 1024.67 660.693 1026.8ZM696.579 1024.86C696.579 1025.08 697.329 1025.55 698.245 1025.89C699.201 1026.25 699.631 1026.07 699.256 1025.48C698.625 1024.48 696.579 1024.01 696.579 1024.86ZM1182.93 1027.48C1182.93 1028.29 1184.07 1031.35 1185.48 1034.29C1189.73 1043.18 1198.5 1067.88 1204.84 1088.81C1206.41 1093.99 1208.65 1101.29 1209.82 1105.04C1210.99 1108.78 1211.95 1112.55 1211.97 1113.41C1211.98 1114.27 1212.68 1116.16 1213.52 1117.6C1215 1120.12 1215.06 1120.02 1215.1 1114.78C1215.12 1111.79 1214.71 1109.09 1214.2 1108.78C1213.68 1108.47 1212.96 1106.68 1212.58 1104.8C1211.68 1100.3 1208.34 1089.56 1203.22 1074.68C1197.18 1057.13 1195.89 1053.6 1194.15 1049.93C1193.29 1048.12 1192.58 1046.23 1192.57 1045.74C1192.53 1044.15 1182.94 1025.97 1182.93 1027.48ZM435.609 1033.78C432.727 1036.59 432.465 1037.47 432.407 1044.51C432.314 1055.93 430.591 1117.4 429.228 1157.89C427.753 1201.76 427.357 1253.2 428.465 1257.06C428.919 1258.65 429.644 1259.94 430.076 1259.93C431.366 1259.92 436.093 1252.61 438.129 1247.47C441.091 1239.99 443.01 1210.37 444.962 1142.03C447.526 1052.23 447.743 1041.22 447.006 1038.36C446.33 1035.74 441.567 1030.72 439.747 1030.72C439.197 1030.72 437.335 1032.1 435.609 1033.78ZM751.636 1032.06C750.326 1032.64 748.799 1034.57 748.241 1036.36C747.685 1038.16 746.947 1060.58 746.601 1086.2C746.255 1111.81 745.419 1152.33 744.742 1176.24C743.494 1220.37 743.797 1229.9 746.556 1233.4C748.021 1235.25 748.249 1235.17 751.234 1231.7C757.246 1224.71 757.708 1220.54 758.896 1162.6C761.338 1043.4 761.374 1039.37 760.009 1036.16C758.383 1032.33 754.905 1030.63 751.636 1032.06ZM1721.88 1033.11C1721.88 1033.54 1722.8 1038 1723.94 1043.03C1725.86 1051.61 1726.01 1058.1 1726.31 1146.9C1726.59 1233.73 1726.47 1242.13 1724.79 1247.69C1723.78 1251.03 1722.95 1254.51 1722.95 1255.42C1722.95 1258.08 1716.46 1270.17 1713.41 1273.18C1711.87 1274.71 1707.95 1277.18 1704.7 1278.68C1699.4 1281.12 1697.58 1281.39 1686.99 1281.31C1672.3 1281.2 1660.38 1277.99 1650.48 1271.49C1644.91 1267.83 1644.91 1269.17 1650.49 1274.03C1664.88 1286.55 1692.06 1292.71 1707.99 1287.05C1718.09 1283.46 1724.15 1276.38 1728.08 1263.6C1732 1250.85 1732.8 1234.96 1732.07 1184.58C1731.7 1158.97 1731.28 1118.93 1731.13 1095.62C1730.87 1056.2 1730.7 1052.79 1728.68 1046.95C1726.64 1041.07 1721.88 1031.38 1721.88 1033.11ZM1312.69 1043.14C1307.21 1045.64 1305.73 1047.03 1303.26 1052C1299.76 1059.04 1298.86 1068.87 1298.19 1107.13C1297.32 1156.18 1299.64 1176.22 1307.67 1189.29C1310.21 1193.42 1310.11 1191.9 1307.27 1183.01C1305.04 1176.03 1304.91 1173.43 1304.51 1128.13C1304.08 1079.84 1304.71 1067.6 1307.94 1061.56C1308.85 1059.85 1309.6 1058.11 1309.6 1057.68C1309.62 1056.12 1314.19 1052.48 1318.56 1050.54C1322.24 1048.91 1325.65 1048.56 1337.83 1048.54C1351.65 1048.52 1353 1048.7 1358.23 1051.25L1363.83 1053.98L1359.53 1049.55C1352.44 1042.24 1349 1041.23 1331.62 1041.3C1319.82 1041.35 1315.75 1041.74 1312.69 1043.14ZM1432.81 1043.87C1432.37 1044.31 1432 1055.2 1432 1068.05V1091.43H1434.66H1437.32L1437.62 1071.28L1437.91 1051.13L1455.84 1051.25C1465.7 1051.32 1475.26 1051.67 1477.08 1052.02C1481.12 1052.81 1480.54 1051.31 1475.07 1046.87C1471.44 1043.91 1471.43 1043.91 1452.53 1043.48C1442.12 1043.25 1433.25 1043.43 1432.81 1043.87ZM552.178 1047.08C542.796 1049.3 539.555 1052.55 536.15 1063.17C534.781 1067.44 534.061 1075.28 533.363 1093.52C532.239 1122.92 531.978 1168.75 532.891 1176.45C533.829 1184.36 540.003 1200.46 541.528 1198.98C541.71 1198.8 540.879 1195.13 539.682 1190.83C537.597 1183.35 537.528 1180.92 538.071 1134.34C538.532 1094.9 538.978 1083.99 540.427 1076.78C543.457 1061.69 546.651 1057.67 558.059 1054.58C567.627 1052 579.038 1052.11 585.618 1054.86C588.46 1056.05 591.151 1057.58 591.596 1058.26C592.116 1059.06 592.412 1059.1 592.423 1058.37C592.453 1056.27 582.865 1048.46 578.367 1046.91C572.814 1045 560.661 1045.08 552.178 1047.08ZM1657.21 1051.2C1647.46 1057.43 1646.18 1066.26 1646.22 1127.02C1646.25 1185.69 1648.16 1203.22 1655.53 1212.72C1657.91 1215.79 1657.98 1214.52 1655.77 1208.53C1652.82 1200.53 1650.75 1159.34 1651.39 1121.78C1651.71 1103.65 1652.47 1084.48 1653.09 1079.19C1655.09 1062.02 1660.95 1055.89 1675.37 1055.86C1679.62 1055.85 1684.33 1056.3 1685.84 1056.86C1691.86 1059.1 1686.93 1052.75 1680.66 1050.2C1678.1 1049.16 1673.61 1048.54 1668.87 1048.58C1662.63 1048.63 1660.48 1049.11 1657.21 1051.2ZM1668.2 1062.86C1664.51 1064.18 1661.8 1067.86 1660.76 1072.99C1657.16 1090.75 1656.28 1147.95 1659.07 1182.14C1660.88 1204.23 1661.2 1206.16 1664.04 1212.64C1666.87 1219.07 1669.79 1221.14 1676.08 1221.18C1682.7 1221.22 1687.08 1218.76 1689.97 1213.37C1692.18 1209.23 1692.21 1208.38 1691.93 1140.1C1691.66 1073.28 1691.58 1070.91 1689.52 1067.65C1688.11 1065.42 1686.05 1063.92 1683.43 1063.21C1679.26 1062.08 1670.93 1061.89 1668.2 1062.86ZM1046.25 1084.27C1045.22 1090.22 1043.84 1097.68 1043.19 1100.84C1042.54 1104 1041.38 1111.3 1040.61 1117.06C1039.84 1122.83 1038.7 1130.6 1038.07 1134.34C1035.68 1148.73 1035.63 1147.95 1038.96 1147.95C1041.48 1147.95 1042.12 1147.35 1043.11 1144.02C1043.75 1141.87 1044.6 1136.8 1045.01 1132.77C1045.41 1128.74 1046.36 1122.62 1047.13 1119.17C1047.9 1115.71 1048.86 1109.61 1049.27 1105.61C1049.68 1101.61 1050.48 1097.14 1051.05 1095.69C1051.74 1093.92 1051.65 1090.77 1050.79 1086.22C1048.24 1072.66 1048.27 1072.67 1046.25 1084.27ZM836.937 1095.88C835.393 1097.02 835.148 1100.24 835.01 1121.26C834.851 1145.3 835.631 1151.78 838.571 1150.83C839.581 1150.5 839.976 1143.6 840.192 1122.48C840.35 1107.13 840.079 1094.57 839.592 1094.57C839.105 1094.57 837.91 1095.16 836.937 1095.88ZM1472.4 1100.64C1472.06 1101.16 1471.75 1112.85 1471.7 1126.6C1471.62 1147.76 1471.87 1152.14 1473.35 1155.01C1475.13 1158.46 1477.02 1159.49 1477.19 1157.11C1477.24 1156.39 1477.29 1143.32 1477.3 1128.06C1477.33 1101.05 1477.27 1100.32 1475.17 1100.01C1473.98 1099.83 1472.73 1100.11 1472.4 1100.64ZM1374.26 1106.28C1371.21 1109.25 1373.48 1213.95 1376.87 1227.15C1378.52 1233.55 1382.01 1241.1 1383.32 1241.1C1383.59 1241.1 1383.59 1240.74 1383.31 1240.29C1383.02 1239.85 1381.97 1232.67 1380.96 1224.33C1379.59 1213.01 1378.96 1196.1 1378.46 1157.45C1378.01 1123.22 1377.41 1105.61 1376.67 1105.37C1376.06 1105.17 1374.97 1105.58 1374.26 1106.28ZM1173.61 1159.46C1173.96 1215.72 1174.51 1222.43 1179.18 1228.14L1181.51 1230.99L1180.67 1225.32C1180.21 1222.2 1179.53 1197.74 1179.16 1170.98C1178.51 1123.58 1177.88 1114.85 1174.74 1109.22C1173.49 1106.99 1173.33 1114.42 1173.61 1159.46ZM382.667 1110.53C381.981 1113.1 378.908 1123.46 376.851 1130.16C375.701 1133.9 373.715 1140.73 372.438 1145.33C371.16 1149.94 369.42 1156.06 368.569 1158.94C366.316 1166.57 361.994 1182.27 358.912 1194C358.081 1197.17 356.389 1203.29 355.152 1207.61C350.446 1224.03 349.761 1227.73 350.462 1232.88C351.532 1240.75 353.91 1240.68 355.966 1232.73C357.462 1226.94 360.679 1215.07 363.772 1203.95C368.044 1188.57 368.986 1185.16 371.124 1177.26C372.292 1172.94 374.05 1166.82 375.033 1163.65C376.015 1160.48 377.703 1154.6 378.783 1150.57C379.864 1146.54 381.227 1141.59 381.813 1139.58C382.918 1135.78 384.413 1109.22 383.522 1109.22C383.245 1109.22 382.86 1109.81 382.667 1110.53ZM318.369 1111.84C318.001 1112.99 317.172 1134.66 316.526 1159.99C315.879 1185.31 314.893 1212.4 314.335 1220.17C312.298 1248.49 313.619 1263.06 318.794 1269.36L320.939 1271.98L320.194 1268.31C318.956 1262.23 320.304 1197.67 322.675 1149.52C323.615 1130.41 323.683 1131.66 321.034 1119.17C319.727 1113 318.806 1110.47 318.369 1111.84ZM1052.59 1125.97C1051.89 1132.94 1051.07 1137.72 1049.23 1145.59C1048.72 1147.77 1049.05 1147.95 1053.61 1147.95C1057.78 1147.95 1058.45 1147.67 1058.01 1146.12C1057.72 1145.11 1057.17 1140.69 1056.78 1136.29C1056.39 1131.9 1055.47 1126.01 1054.73 1123.21L1053.38 1118.12L1052.59 1125.97ZM793.204 1164.66V1194.98L795.62 1194.11C797.952 1193.27 798.058 1192.65 798.693 1176.09C799.053 1166.66 799.416 1155.03 799.498 1150.25L799.646 1141.56L814.679 1141.88C822.946 1142.05 829.71 1141.8 829.709 1141.33C829.708 1140.85 828.295 1139.08 826.569 1137.4L823.431 1134.34H808.317H793.204V1164.66ZM657.517 1140.36C657.21 1141.37 656.815 1161.5 656.639 1185.11C656.339 1225.3 656.446 1228.27 658.329 1231.96C659.433 1234.13 660.641 1236.08 661.013 1236.3C661.383 1236.53 661.837 1216.85 662.022 1192.59C662.228 1165.41 662.764 1148.07 663.417 1147.43C664.003 1146.85 672.157 1146.21 681.602 1146.01L698.726 1145.64V1142.08V1138.53H678.4C659.97 1138.53 658.021 1138.7 657.517 1140.36ZM1432.13 1167.96C1432.5 1184.3 1432.86 1198.96 1432.94 1200.54C1433.05 1202.88 1433.58 1203.42 1435.77 1203.42C1438.37 1203.42 1438.45 1203.23 1437.95 1197.93C1437.66 1194.9 1437.15 1181.88 1436.81 1168.98L1436.2 1145.54L1449.39 1146.26C1456.65 1146.66 1463.77 1147.28 1465.22 1147.64L1467.85 1148.28L1465.43 1145.27C1461.74 1140.7 1457.39 1139.4 1443.81 1138.8L1431.47 1138.26L1432.13 1167.96ZM1329.12 1145.14C1327.3 1147.03 1326.79 1148.84 1326.79 1153.45C1326.79 1156.69 1327.19 1159.58 1327.69 1159.88C1328.18 1160.18 1330.09 1158.34 1331.94 1155.79C1333.82 1153.18 1336.49 1150.86 1338.02 1150.48C1340.27 1149.93 1340.75 1149.19 1340.75 1146.27C1340.75 1142.78 1340.67 1142.72 1336.1 1142.72C1332.64 1142.72 1330.87 1143.33 1329.12 1145.14ZM971.375 1182.56C969.806 1184.7 968.552 1188.93 967.573 1195.38C966.771 1200.66 965.636 1207.11 965.053 1209.7C964.47 1212.29 963.492 1217.79 962.879 1221.93C962.266 1226.06 961.323 1230.58 960.782 1231.96L959.799 1234.48L936.988 1235.18C924.441 1235.56 905.423 1235.87 894.726 1235.87C873.308 1235.87 870.504 1236.56 870.504 1241.84V1244.54L878.288 1243.86C882.568 1243.48 903.223 1242.91 924.185 1242.59C945.147 1242.28 963.318 1241.82 964.563 1241.58C966.45 1241.21 966.946 1240.12 967.521 1235.1C967.901 1231.78 968.911 1225.53 969.765 1221.21C971.871 1210.57 975.411 1190.41 976.243 1184.32C977.07 1178.28 975.038 1177.54 971.375 1182.56ZM855.663 1184.17C853.351 1186.9 852.028 1190.14 850.849 1195.94C849.162 1204.24 846.243 1216.42 842.91 1229.06L840.98 1236.39L822.192 1237.12C784.81 1238.56 758.428 1240.2 756.51 1241.2C755.384 1241.79 754.554 1243.38 754.554 1244.96V1247.69L769.853 1246.99C788.898 1246.12 836.24 1244.35 842.167 1244.29L846.577 1244.24L848.445 1237.18C849.472 1233.29 850.938 1227.29 851.701 1223.83C852.465 1220.38 854.156 1213.08 855.459 1207.61C860.205 1187.68 860.767 1185.06 860.804 1182.75C860.858 1179.41 859.333 1179.82 855.663 1184.17ZM605.506 1187.71C603.633 1189.38 602.101 1191.62 602.101 1192.69C602.101 1193.76 601.656 1195.08 601.11 1195.62C600.565 1196.17 599.647 1198.97 599.069 1201.85C598.492 1204.73 597.523 1208.5 596.918 1210.23C596.311 1211.95 594.797 1216.9 593.551 1221.21C592.306 1225.53 590.587 1231.42 589.732 1234.3C588.878 1237.18 587.688 1241.42 587.088 1243.72C585.225 1250.87 585.82 1250.65 564.924 1251.95C542.603 1253.34 533.308 1252.62 525.875 1248.95C519.674 1245.89 519.57 1247.59 525.673 1252.26C534.262 1258.85 537.166 1259.43 560.222 1259.25C571.741 1259.16 583.322 1258.68 585.956 1258.18C591.25 1257.19 590.431 1258.64 595.59 1241.1C596.69 1237.36 598.659 1230.77 599.965 1226.45C601.271 1222.13 602.982 1216.24 603.767 1213.37C604.552 1210.49 606.224 1204.36 607.482 1199.76C611.754 1184.13 611.471 1182.4 605.506 1187.71ZM1495.6 1193.74C1493.36 1196.89 1491.61 1205.6 1489.95 1221.74C1489.36 1227.49 1488.63 1232.94 1488.34 1233.84C1488.05 1234.74 1487.41 1240.52 1486.92 1246.67C1486.42 1252.83 1485.73 1258.15 1485.37 1258.5C1485.01 1258.85 1479.98 1258.59 1474.2 1257.92C1468.41 1257.25 1454.25 1256.02 1442.74 1255.18C1431.22 1254.34 1417.21 1253.25 1411.6 1252.75C1400.53 1251.76 1399.22 1251.93 1398.23 1254.45C1396.87 1257.89 1400.04 1258.84 1416.46 1259.91C1425.3 1260.48 1437.13 1261.43 1442.74 1262.01C1448.35 1262.6 1460.43 1263.57 1469.58 1264.18C1478.73 1264.78 1487.25 1265.53 1488.5 1265.83C1491.36 1266.52 1490.89 1268.91 1495.41 1230.63C1496.05 1225.17 1497.25 1215.51 1498.07 1209.18C1500.49 1190.58 1500 1187.54 1495.6 1193.74ZM1028.98 1194.26C1028.73 1195.56 1028 1199.13 1027.35 1202.19C1026.71 1205.26 1025.87 1211.64 1025.5 1216.37C1024.84 1224.68 1024.91 1225.04 1027.44 1226.65L1030.06 1228.33L1031.95 1215.61C1032.99 1208.62 1033.93 1202.19 1034.05 1201.33C1034.22 1200.02 1037.13 1199.71 1051.47 1199.47L1068.69 1199.18L1068.25 1195.55L1067.81 1191.91H1048.63C1029.58 1191.91 1029.44 1191.93 1028.98 1194.26ZM1611.28 1198.73C1609.28 1201.08 1607.18 1220.87 1606.23 1246.33L1605.39 1268.84L1601.63 1268.74C1595.34 1268.58 1568.25 1266.24 1560.84 1265.21C1548.99 1263.58 1515.59 1261.76 1514.68 1262.71C1514.21 1263.2 1514.21 1264.58 1514.67 1265.76C1515.41 1267.64 1517.05 1268.08 1527.18 1269.18C1533.58 1269.87 1545.59 1270.92 1553.86 1271.51C1562.12 1272.1 1572.03 1273 1575.87 1273.51C1579.71 1274.02 1589.17 1274.77 1596.9 1275.17L1610.95 1275.89L1611.69 1256.14C1612.09 1245.28 1612.89 1232.15 1613.45 1226.97C1614.75 1215.1 1614.82 1197.14 1613.57 1197.14C1613.06 1197.14 1612.03 1197.86 1611.28 1198.73ZM1008.69 1235.87C988.522 1236.3 984.047 1236.67 983.209 1237.96C980.634 1241.94 981.523 1242.14 1002.56 1242.38C1040.18 1242.8 1037.41 1242.95 1037.77 1240.47C1038.45 1235.82 1035.15 1235.3 1008.69 1235.87ZM1099.95 1236.91C1077.87 1237.35 1073.16 1237.71 1072.32 1239.01C1069.3 1243.67 1071.75 1244.1 1102.44 1244.32C1129.7 1244.51 1130.87 1244.43 1131.17 1242.51C1131.34 1241.4 1130.37 1239.58 1129.02 1238.45C1126.68 1236.49 1125.27 1236.42 1099.95 1236.91ZM1292.45 1237.49C1298.51 1244.75 1307.73 1250.67 1314.98 1251.94C1324.23 1253.57 1337.38 1254.8 1355.78 1255.76C1366.7 1256.32 1379.62 1257.09 1384.5 1257.46C1392.99 1258.11 1393.35 1258.05 1393.35 1255.95C1393.35 1252.93 1388.45 1248.2 1387.03 1249.86C1386.27 1250.75 1383.21 1250.87 1375.98 1250.31C1370.48 1249.88 1354.86 1248.82 1341.28 1247.97C1313.03 1246.18 1305.52 1244.73 1296.96 1239.38C1293.6 1237.29 1291.57 1236.44 1292.45 1237.49ZM1138.5 1239.91C1134.4 1244.34 1136.27 1244.9 1157.33 1245.63C1168.16 1246 1180.03 1246.61 1183.71 1246.99C1189.45 1247.58 1190.49 1247.42 1191.1 1245.87C1191.55 1244.73 1191 1243.27 1189.61 1241.91C1187.75 1240.1 1185.82 1239.72 1177.38 1239.47C1171.87 1239.31 1161.32 1238.86 1153.93 1238.47C1141.24 1237.79 1140.39 1237.87 1138.5 1239.91ZM740.51 1240.04C739.672 1240.47 731.015 1241.11 721.272 1241.46C699.029 1242.25 696.052 1242.75 693.831 1246.05C692.864 1247.49 692.495 1249.05 693.002 1249.55C693.51 1250.04 705.659 1249.87 720.196 1249.17C744.503 1248 746.503 1247.76 746.862 1245.94C747.363 1243.4 742.589 1238.96 740.51 1240.04ZM1226.94 1243.15C1226.94 1244.11 1227.57 1245.72 1228.33 1246.73C1229.52 1248.32 1232.22 1248.66 1248.03 1249.18C1268 1249.84 1269.76 1249.39 1265.99 1244.63C1264.02 1242.15 1263.61 1242.09 1245.46 1241.75C1228.77 1241.44 1226.94 1241.58 1226.94 1243.15ZM662.224 1244.17C660.747 1244.6 651.085 1245.56 640.751 1246.31C620.529 1247.76 617.132 1248.75 617.132 1253.16C617.132 1256.29 616.97 1256.28 638.604 1254.18C647.166 1253.36 657.373 1252.66 661.287 1252.65C670.125 1252.61 672.322 1250.9 669.041 1246.61C666.566 1243.38 665.823 1243.12 662.224 1244.17ZM484.621 1258.77C484.3 1259.27 481.252 1259.93 477.848 1260.23C454.414 1262.3 440.488 1264.31 438.699 1265.89C436.816 1267.55 435.961 1272.53 437.57 1272.47C438.592 1272.43 462.56 1269.91 478.358 1268.2C488.593 1267.08 490.525 1266.58 491.075 1264.89C491.49 1263.61 490.851 1262 489.286 1260.38C486.69 1257.68 485.558 1257.29 484.621 1258.77ZM422.307 1265.14C421.14 1266.39 418.532 1267.25 414.944 1267.55C411.889 1267.8 402.441 1268.84 393.95 1269.87C377.714 1271.82 374.496 1273.12 374.496 1277.73C374.496 1280.28 375.136 1280.3 392.21 1278.12C399.296 1277.21 409.925 1275.93 415.83 1275.27C421.735 1274.61 427.17 1273.69 427.908 1273.22C429.952 1271.93 429.522 1269.46 426.682 1266.16C424.195 1263.28 424.057 1263.25 422.307 1265.14ZM320.872 1278.19C319.367 1279.96 317.526 1280.38 302.564 1282.39C282.027 1285.14 275.195 1286.4 274.398 1287.57C273.964 1288.2 273.602 1290.04 273.592 1291.65L273.576 1294.58L280.286 1293.9C283.977 1293.52 289.166 1292.76 291.817 1292.22C294.469 1291.67 301.716 1290.5 307.921 1289.62C326.674 1286.97 326.285 1287.07 327.205 1284.68C327.805 1283.11 327.437 1281.58 325.976 1279.57C323.609 1276.3 322.692 1276.05 320.872 1278.19ZM931.163 1313.28C866.942 1314.84 816.141 1316.49 800.72 1317.52C792.157 1318.1 774.523 1319.04 761.533 1319.62C748.542 1320.21 733.565 1321.13 728.251 1321.68C722.936 1322.23 709.435 1323.2 698.245 1323.82C687.057 1324.45 677.582 1325.16 677.19 1325.4C676.797 1325.63 669.525 1326.32 661.03 1326.92C645.742 1328 628.093 1329.73 602.101 1332.7C594.72 1333.54 583.85 1334.73 577.945 1335.35C562.873 1336.91 556.089 1337.94 555.216 1338.79C554.229 1339.76 590.12 1374.2 603.777 1385.39C609.646 1390.2 615.656 1395.15 617.132 1396.38C618.608 1397.61 622.473 1400.6 625.721 1403.02C633.912 1409.12 636.426 1411.02 637.914 1412.23C639.299 1413.36 641.478 1414.86 653.098 1422.72C657.231 1425.51 660.774 1428.18 660.971 1428.65C661.168 1429.12 661.782 1429.5 662.336 1429.5C663.288 1429.5 671.809 1434.57 672.96 1435.82C673.255 1436.14 675.912 1437.75 678.865 1439.4C681.817 1441.05 684.474 1442.68 684.769 1443.01C685.065 1443.35 686.459 1444.26 687.869 1445.04C689.279 1445.81 692.087 1447.35 694.111 1448.46C696.135 1449.56 698.851 1451.15 700.148 1451.98C703.995 1454.43 717.636 1461.43 732.545 1468.59C745.346 1474.73 750.483 1477.07 760.996 1481.54C763.063 1482.42 766.121 1483.78 767.793 1484.58C769.464 1485.37 771.397 1486.02 772.087 1486.02C772.778 1486.03 774.624 1486.68 776.191 1487.48C777.758 1488.28 780.898 1489.51 783.169 1490.23C785.441 1490.94 787.782 1491.87 788.373 1492.29C788.963 1492.71 790.896 1493.39 792.667 1493.8C794.439 1494.22 797.338 1495.15 799.109 1495.88C800.881 1496.6 805.953 1498.28 810.382 1499.6C814.811 1500.92 820.367 1502.59 822.729 1503.32C835.001 1507.09 838.82 1508.15 845.498 1509.63C849.509 1510.53 856.896 1512.18 861.915 1513.31C873.314 1515.88 885.242 1518.07 898.418 1520.02C904.028 1520.85 911.516 1522.02 915.059 1522.61C926.551 1524.56 961.734 1527.04 985.381 1527.57C1003 1527.97 1015.45 1527.57 1037.99 1525.87C1054.23 1524.65 1069.69 1523.21 1072.34 1522.66C1075 1522.11 1082.01 1521.14 1087.91 1520.49C1093.82 1519.84 1099.03 1519.08 1099.5 1518.8C1099.97 1518.51 1104.32 1517.66 1109.16 1516.89C1114.01 1516.13 1122.32 1514.54 1127.63 1513.35C1132.95 1512.17 1140.58 1510.48 1144.59 1509.61C1148.6 1508.73 1154.4 1507.27 1157.47 1506.37C1160.55 1505.47 1165.72 1503.99 1168.97 1503.09C1174.64 1501.5 1177.67 1500.59 1194.2 1495.46C1198.33 1494.17 1203.24 1492.47 1205.1 1491.67C1206.96 1490.86 1209.13 1490.19 1209.93 1490.17C1210.72 1490.15 1213.31 1489.22 1215.67 1488.11C1218.03 1487 1220.62 1486.07 1221.41 1486.05C1222.2 1486.03 1224.14 1485.35 1225.7 1484.54C1227.27 1483.73 1231.21 1482.04 1234.46 1480.79C1237.71 1479.54 1242.3 1477.67 1244.66 1476.63C1253.48 1472.75 1260.97 1469.41 1267.96 1466.25C1271.93 1464.46 1275.63 1462.99 1276.2 1462.99C1276.76 1462.99 1277.38 1462.64 1277.58 1462.21C1277.78 1461.78 1281.08 1459.89 1284.92 1458.01C1296.63 1452.29 1315.57 1441.99 1322.37 1437.64C1323.91 1436.65 1326.63 1435.07 1328.4 1434.12C1330.17 1433.18 1338.54 1427.86 1346.99 1422.32C1355.44 1416.77 1363.13 1411.76 1364.07 1411.18C1365.02 1410.61 1366.55 1409.51 1367.49 1408.75C1368.43 1407.99 1376.21 1402.11 1384.78 1395.67C1398.75 1385.19 1403.7 1381.26 1409.45 1376.12C1410.41 1375.26 1414.75 1371.5 1419.1 1367.77C1432.3 1356.44 1451.36 1337.54 1450.26 1336.87C1449.69 1336.53 1444.74 1335.8 1439.27 1335.25C1433.8 1334.7 1423.04 1333.56 1415.36 1332.7C1386.46 1329.49 1379.47 1328.79 1362.22 1327.42C1352.48 1326.65 1338.95 1325.52 1332.16 1324.92C1316.92 1323.57 1294.43 1322 1270.42 1320.61C1260.39 1320.03 1244.2 1319.09 1234.46 1318.52C1217.81 1317.56 1202.02 1316.96 1125.49 1314.37C1082.74 1312.92 971.572 1312.3 931.163 1313.28Z" fill="black"/>
</svg>
